# Blender 3.5.0
# www.blender.org
mtllib Shuriken.mtl
o Cube
v -0.265486 0.217729 0.197220
v -0.265486 -0.217729 0.197220
v -0.285275 0.217729 -0.215506
v -0.285275 -0.217729 -0.215506
v 0.244442 0.217729 0.182149
v 0.244442 -0.217729 0.182149
v 0.230207 0.217729 -0.219720
v 0.230207 -0.217729 -0.219720
v 0.000000 -0.217729 1.000000
v 0.000000 0.217729 -1.000000
v 0.000000 -0.217729 -1.000000
v 0.000000 0.217729 1.000000
v 1.000000 -0.217729 0.000000
v -1.000000 0.217729 0.000000
v 1.000000 0.217729 0.000000
v -1.000000 -0.217729 0.000000
v 0.000000 -0.217729 0.000000
v 0.000000 0.217729 0.000000
vn -0.0000 1.0000 -0.0000
vn 0.9591 -0.0000 -0.2830
vn 0.2344 -0.0000 0.9721
vn -0.0000 -1.0000 -0.0000
vn -0.2887 -0.0000 -0.9574
vn -0.9494 -0.0000 0.3140
vn 0.9581 -0.0000 0.2864
vn -0.9398 -0.0000 -0.3417
vn -0.2593 -0.0000 0.9658
vn 0.2745 -0.0000 -0.9616
vt 0.853627 0.441070
vt 0.083787 0.478471
vt 0.846757 0.882140
vt 0.846757 0.441070
vt 0.853627 0.000000
vt 0.166587 0.083787
vt 0.526255 0.882140
vt 0.684224 0.441070
vt 0.145062 0.545918
vt 0.684225 0.000000
vt 0.234034 0.145062
vt 0.526255 0.441070
vt 0.311884 0.882140
vt 0.500132 0.441070
vt 0.165656 0.401302
vt 0.500132 0.000000
vt 0.311884 0.441070
vt 0.089418 0.165656
vt 0.226104 0.466190
vt 0.846757 0.882140
vt 0.853627 0.441070
vt 0.853627 0.000000
vt 0.846757 0.441070
vt 0.154306 0.226104
vt 1.000000 0.000000
vt 0.311884 0.000000
vt 0.000000 0.000000
vt 0.997091 0.882140
vt 0.500132 0.441070
vt 0.311884 0.623767
vt 0.997091 0.441070
vt 0.311884 0.311884
vt 0.500132 0.000000
vt 1.000000 0.441070
vt 0.311884 0.441070
vt 0.000000 0.311884
vt 0.477980 0.441070
vt 0.000000 0.311884
vt 0.684225 0.000000
vt 0.000000 0.623767
vt 0.684224 0.882140
vt 0.477980 0.882140
vt 0.684224 0.441070
vt 0.311884 0.311884
vt 0.684224 0.441070
vt 0.311884 0.000000
vt 0.155942 0.155942
vt 0.155942 0.467825
s 0
usemtl Material
f 18/48/1 7/19/1 10/30/1
f 10/28/2 8/23/2 11/31/2
f 15/42/3 6/17/3 13/37/3
f 17/47/4 4/11/4 11/32/4
f 14/41/5 4/12/5 16/45/5
f 12/34/6 2/5/6 9/25/6
f 5/14/7 9/26/7 6/16/7
f 17/47/4 8/24/4 13/38/4
f 3/8/8 11/33/8 4/10/8
f 18/48/1 3/9/1 14/40/1
f 1/2/1 18/48/1 14/40/1
f 6/18/4 17/47/4 13/38/4
f 1/3/9 16/45/9 2/4/9
f 2/6/4 17/47/4 9/27/4
f 7/21/10 13/39/10 8/22/10
f 5/15/1 18/48/1 12/36/1
f 18/48/1 15/44/1 7/19/1
f 10/28/2 7/20/2 8/23/2
f 15/42/3 5/13/3 6/17/3
f 17/47/4 16/46/4 4/11/4
f 14/41/5 3/7/5 4/12/5
f 12/34/6 1/1/6 2/5/6
f 5/14/7 12/35/7 9/26/7
f 17/47/4 11/32/4 8/24/4
f 3/8/8 10/29/8 11/33/8
f 18/48/1 10/30/1 3/9/1
f 1/2/1 12/36/1 18/48/1
f 6/18/4 9/27/4 17/47/4
f 1/3/9 14/41/9 16/45/9
f 2/6/4 16/46/4 17/47/4
f 7/21/10 15/43/10 13/39/10
f 5/15/1 15/44/1 18/48/1
